<?xml version="1.0" encoding="utf-8"?>
<!-- Generator: Adobe Illustrator 25.0.1, SVG Export Plug-In . SVG Version: 6.00 Build 0)  -->
<svg version="1.1" id="Layer_1" xmlns="http://www.w3.org/2000/svg" xmlns:xlink="http://www.w3.org/1999/xlink" x="0px" y="0px"
	 viewBox="0 0 160 78" style="enable-background:new 0 0 160 78;" xml:space="preserve">
<g>
	<path d="M102.4,16.5h0.2c-0.2,2.9-0.3,5.5-0.3,7.7v15.2h5.5V9.4h-7.7l-7.6,17.9L84.8,9.4h-7.6v29.9h5.5V24.2c0-2.4-0.1-5-0.3-7.7
		h0.2l8.1,17.7h3.5L102.4,16.5z"/>
	<path d="M133.6,28.5v7c-0.5,0.1-1.1,0.2-1.8,0.3c-0.7,0.1-1.3,0.1-1.9,0.1c-3.4,0-6-0.9-7.8-2.7c-1.8-1.8-2.8-4.4-2.8-8
		c0-1.8,0.3-3.4,0.9-4.8c0.6-1.4,1.4-2.6,2.4-3.5c1-0.9,2.3-1.7,3.7-2.1c1.4-0.5,2.6-0.4,4.2-0.4c0.5,0,0.6,0.1,1.1,0.1
		c0.7,0,1.1,0.2,1.9,0.3c1.2,0.2,1.1,0.3,2.3,0.6l3.4-3.6c0,0-0.5-0.4-1.2-0.7c-0.7-0.4-1.4-0.6-1.9-0.8c-1.4-0.5-1.2-0.5-1.8-0.6
		c-1.4-0.2-2.2-0.3-3.7-0.3c-1.7,0-3.3,0.2-4.8,0.5c-1.5,0.4-2.8,0.9-4.1,1.6c-1.2,0.7-2.4,1.5-3.3,2.5c-1,1-1.8,2.1-2.5,3.3
		c-0.7,1.2-1.2,2.5-1.5,3.9c-0.4,1.4-0.5,2.9-0.5,4.4c0,2.2,0.3,4.2,1,6s1.7,3.4,3,4.7c1.3,1.3,3,2.3,5,3.1c2,0.7,4.3,1.1,7,1.1
		c0.9,0,1.8,0,2.7-0.1c0.9-0.1,1.8-0.2,2.7-0.3c0.9-0.1,1.6-0.3,2.3-0.5c0.7-0.2,1.3-0.4,1.7-0.5V23.9h-5.5L133.6,28.5z"/>
	<path d="M80,47.3c-0.2,0-0.4-0.1-0.6-0.1c-0.2,0-0.4,0-0.7,0h-1.7v4.6h0.7v-1.9c0.2,0,0.4,0,0.6,0c0.4,0,0.8,0,1.1-0.1
		c0.3-0.1,0.6-0.1,0.8-0.3c0.2-0.1,0.4-0.3,0.5-0.4c0.1-0.2,0.2-0.4,0.2-0.6c0-0.3-0.1-0.5-0.3-0.7C80.7,47.5,80.4,47.4,80,47.3z
		 M80.3,48.8c-0.1,0.1-0.2,0.2-0.3,0.3c-0.2,0.1-0.3,0.1-0.6,0.2c-0.2,0-0.5,0.1-0.9,0.1c-0.1,0-0.2,0-0.3,0c-0.1,0-0.2,0-0.3,0
		v-1.7h0.8c0.2,0,0.4,0,0.6,0c0.2,0,0.3,0,0.4,0.1c0.2,0.1,0.4,0.1,0.5,0.3c0.1,0.1,0.2,0.3,0.2,0.4C80.4,48.6,80.3,48.7,80.3,48.8z
		"/>
	<path d="M85.1,48.8c-0.2-0.2-0.4-0.3-0.6-0.3c-0.2-0.1-0.5-0.1-0.8-0.1c-0.3,0-0.6,0-0.8,0.1c-0.2,0.1-0.5,0.2-0.6,0.3
		c-0.2,0.2-0.3,0.3-0.4,0.5c-0.1,0.2-0.1,0.4-0.1,0.7c0,0.3,0,0.5,0.1,0.7c0.1,0.2,0.2,0.4,0.4,0.5c0.2,0.1,0.4,0.3,0.6,0.3
		c0.2,0.1,0.5,0.1,0.8,0.1c0.3,0,0.6,0,0.8-0.1c0.2-0.1,0.5-0.2,0.6-0.3c0.2-0.1,0.3-0.3,0.4-0.5s0.1-0.4,0.1-0.7
		c0-0.3,0-0.5-0.1-0.7C85.4,49.1,85.3,49,85.1,48.8z M84.8,50.6c-0.1,0.2-0.2,0.3-0.3,0.4c-0.1,0.1-0.3,0.2-0.4,0.2
		c-0.2,0.1-0.3,0.1-0.5,0.1c-0.2,0-0.4,0-0.5-0.1c-0.2-0.1-0.3-0.1-0.4-0.2c-0.1-0.1-0.2-0.2-0.3-0.4c-0.1-0.2-0.1-0.3-0.1-0.5
		c0-0.2,0-0.4,0.1-0.5c0.1-0.2,0.2-0.3,0.3-0.4c0.1-0.1,0.3-0.2,0.4-0.2c0.2-0.1,0.3-0.1,0.5-0.1c0.2,0,0.4,0,0.5,0.1
		s0.3,0.1,0.4,0.2c0.1,0.1,0.2,0.2,0.3,0.4c0.1,0.2,0.1,0.3,0.1,0.5C84.9,50.3,84.9,50.4,84.8,50.6z"/>
	<path d="M89.8,48.6c-0.1-0.1-0.3-0.1-0.4-0.2c-0.2,0-0.3,0-0.5,0c-0.2,0-0.3,0-0.4,0c-0.1,0-0.3,0.1-0.4,0.1
		c-0.1,0-0.2,0.1-0.3,0.2c-0.1,0.1-0.2,0.1-0.3,0.2h0v-2.1h-0.7v4.9h0.7v-2.3c0.2-0.2,0.4-0.3,0.6-0.4c0.2-0.1,0.5-0.2,0.7-0.2
		c0.3,0,0.5,0.1,0.6,0.2c0.1,0.1,0.2,0.3,0.2,0.6v2.1h0.7v-2.2c0-0.2,0-0.4-0.1-0.6C90,48.8,89.9,48.7,89.8,48.6z"/>
	<rect x="91.6" y="48.4" width="0.7" height="3.2"/>
	<rect x="91.6" y="47.1" width="0.7" height="0.6"/>
	<path d="M96,50c-0.1-0.1-0.3-0.1-0.4-0.1c-0.1,0-0.3-0.1-0.5-0.1c-0.1,0-0.2,0-0.3-0.1s-0.2-0.1-0.3-0.1c-0.1,0-0.1-0.1-0.2-0.1
		c0-0.1-0.1-0.1-0.1-0.2c0-0.1,0-0.1,0.1-0.2c0-0.1,0.1-0.1,0.2-0.2c0.1,0,0.2-0.1,0.3-0.1c0.1,0,0.2,0,0.4,0c0.2,0,0.4,0,0.6,0.1
		c0.2,0,0.4,0.1,0.5,0.1v-0.5c-0.2-0.1-0.3-0.1-0.5-0.1c-0.2,0-0.4-0.1-0.7-0.1c-0.2,0-0.4,0-0.6,0.1c-0.2,0-0.3,0.1-0.5,0.2
		c-0.1,0.1-0.2,0.2-0.3,0.3c-0.1,0.1-0.1,0.3-0.1,0.4c0,0.2,0,0.3,0.1,0.4c0.1,0.1,0.2,0.2,0.3,0.3c0.1,0.1,0.3,0.1,0.4,0.1
		c0.2,0,0.3,0.1,0.5,0.1c0.1,0,0.2,0,0.3,0.1c0.1,0,0.2,0.1,0.3,0.1c0.1,0,0.1,0.1,0.2,0.1c0,0.1,0.1,0.1,0.1,0.2
		c0,0.1,0,0.2-0.1,0.2c-0.1,0.1-0.1,0.1-0.2,0.2c-0.1,0-0.2,0.1-0.3,0.1c-0.1,0-0.3,0-0.4,0c-0.2,0-0.4,0-0.6,0
		c-0.2,0-0.3-0.1-0.5-0.1v0.4c0,0,0.1,0,0.2,0.1c0.1,0,0.2,0,0.2,0.1c0.1,0,0.2,0,0.3,0c0.1,0,0.3,0,0.4,0c0.3,0,0.5,0,0.7-0.1
		c0.2,0,0.4-0.1,0.5-0.2c0.2-0.1,0.3-0.2,0.4-0.3c0.1-0.1,0.1-0.3,0.1-0.4c0-0.2,0-0.3-0.1-0.4C96.2,50.2,96.1,50.1,96,50z"/>
	<polygon points="94.9,47.6 94.4,47 93.9,47 94.6,47.9 95.1,47.9 95.8,47 95.4,47 94.9,47.6 	"/>
	<path d="M99.1,51.3c-0.1,0-0.2,0-0.3,0c-0.1,0-0.2-0.1-0.2-0.1c-0.1,0-0.1-0.1-0.1-0.2c0-0.1,0-0.1,0-0.2v-1.9h1.3v-0.5h-1.3v-0.9
		h-0.7v0.9h-0.8v0.5h0.8v2c0,0.1,0,0.3,0.1,0.4c0.1,0.1,0.1,0.2,0.2,0.3c0.1,0.1,0.2,0.1,0.4,0.2c0.2,0,0.4,0.1,0.6,0.1
		c0.2,0,0.3,0,0.4,0c0.1,0,0.2,0,0.3-0.1v-0.4c-0.1,0-0.2,0-0.3,0C99.3,51.3,99.2,51.3,99.1,51.3z"/>
	<path d="M102.4,50.2c-0.2,0.4-0.3,0.7-0.4,0.9h0c-0.1-0.2-0.2-0.5-0.4-0.9l-0.8-1.8h-0.7l1.6,3.2h0.7l1.6-3.2h-0.7L102.4,50.2z"/>
	<path d="M108.1,48.8c-0.2-0.2-0.4-0.3-0.6-0.3c-0.2-0.1-0.5-0.1-0.8-0.1c-0.3,0-0.6,0-0.8,0.1c-0.2,0.1-0.5,0.2-0.6,0.3
		c-0.2,0.2-0.3,0.3-0.4,0.5c-0.1,0.2-0.1,0.4-0.1,0.7c0,0.3,0,0.5,0.1,0.7c0.1,0.2,0.2,0.4,0.4,0.5c0.2,0.1,0.4,0.3,0.6,0.3
		c0.2,0.1,0.5,0.1,0.8,0.1c0.3,0,0.6,0,0.8-0.1c0.2-0.1,0.5-0.2,0.6-0.3c0.2-0.1,0.3-0.3,0.4-0.5c0.1-0.2,0.1-0.4,0.1-0.7
		c0-0.3,0-0.5-0.1-0.7C108.4,49.1,108.2,49,108.1,48.8z M107.8,50.6c-0.1,0.2-0.2,0.3-0.3,0.4c-0.1,0.1-0.2,0.2-0.4,0.2
		c-0.2,0.1-0.3,0.1-0.5,0.1c-0.2,0-0.4,0-0.5-0.1c-0.2-0.1-0.3-0.1-0.4-0.2c-0.1-0.1-0.2-0.2-0.3-0.4c-0.1-0.2-0.1-0.3-0.1-0.5
		c0-0.2,0-0.4,0.1-0.5c0.1-0.2,0.2-0.3,0.3-0.4c0.1-0.1,0.3-0.2,0.4-0.2c0.2-0.1,0.3-0.1,0.5-0.1c0.2,0,0.4,0,0.5,0.1
		c0.2,0.1,0.3,0.1,0.4,0.2c0.1,0.1,0.2,0.2,0.3,0.4c0.1,0.2,0.1,0.3,0.1,0.5C107.9,50.3,107.9,50.4,107.8,50.6z"/>
	<path d="M114.7,48.7c-0.2-0.1-0.4-0.2-0.6-0.3s-0.5-0.1-0.7-0.1c-0.2,0-0.3,0-0.5,0.1c-0.1,0-0.3,0.1-0.4,0.1
		c-0.1,0-0.2,0.1-0.2,0.1c-0.1,0-0.1,0.1-0.1,0.1h0l-0.1-0.4h-0.5v4.8h0.7v-1.9h0c0.2,0.1,0.3,0.2,0.5,0.3c0.2,0.1,0.4,0.1,0.7,0.1
		c0.1,0,0.3,0,0.4,0c0.1,0,0.3-0.1,0.4-0.1c0.1-0.1,0.3-0.1,0.4-0.2c0.1-0.1,0.2-0.2,0.3-0.3c0.1-0.1,0.2-0.3,0.2-0.5
		c0.1-0.2,0.1-0.4,0.1-0.6c0-0.3-0.1-0.6-0.2-0.8C115,49,114.9,48.9,114.7,48.7z M114.4,50.7c-0.1,0.2-0.2,0.3-0.3,0.4
		c-0.1,0.1-0.3,0.2-0.4,0.2c-0.1,0-0.3,0.1-0.4,0.1c-0.2,0-0.4,0-0.6-0.1c-0.2-0.1-0.4-0.2-0.5-0.3v-1.7c0,0,0.1-0.1,0.2-0.1
		c0.1-0.1,0.2-0.1,0.2-0.1c0.1,0,0.2-0.1,0.3-0.1c0.1,0,0.2,0,0.4,0c0.2,0,0.4,0,0.5,0.1c0.2,0.1,0.3,0.1,0.4,0.2
		c0.1,0.1,0.2,0.2,0.2,0.4c0.1,0.1,0.1,0.3,0.1,0.5C114.6,50.3,114.5,50.5,114.4,50.7z"/>
	<path d="M119.6,48.8c-0.2-0.2-0.4-0.3-0.6-0.3c-0.3-0.1-0.5-0.1-0.8-0.1c-0.3,0-0.6,0-0.8,0.1c-0.2,0.1-0.5,0.2-0.6,0.3
		c-0.2,0.2-0.3,0.3-0.4,0.5c-0.1,0.2-0.1,0.4-0.1,0.7c0,0.3,0,0.5,0.1,0.7c0.1,0.2,0.2,0.4,0.4,0.5c0.2,0.1,0.4,0.3,0.6,0.3
		c0.2,0.1,0.5,0.1,0.8,0.1c0.3,0,0.6,0,0.8-0.1c0.2-0.1,0.5-0.2,0.6-0.3c0.2-0.1,0.3-0.3,0.4-0.5c0.1-0.2,0.1-0.4,0.1-0.7
		c0-0.3,0-0.5-0.1-0.7S119.8,49,119.6,48.8z M119.4,50.6c-0.1,0.2-0.2,0.3-0.3,0.4c-0.1,0.1-0.3,0.2-0.4,0.2
		c-0.2,0.1-0.3,0.1-0.5,0.1c-0.2,0-0.4,0-0.5-0.1c-0.2-0.1-0.3-0.1-0.4-0.2c-0.1-0.1-0.2-0.2-0.3-0.4c-0.1-0.2-0.1-0.3-0.1-0.5
		c0-0.2,0-0.4,0.1-0.5c0.1-0.2,0.2-0.3,0.3-0.4c0.1-0.1,0.3-0.2,0.4-0.2c0.2-0.1,0.3-0.1,0.5-0.1c0.2,0,0.4,0,0.5,0.1
		c0.2,0.1,0.3,0.1,0.4,0.2c0.1,0.1,0.2,0.2,0.3,0.4c0.1,0.2,0.1,0.3,0.1,0.5C119.4,50.3,119.4,50.4,119.4,50.6z"/>
	<path d="M128.9,48.6c-0.1-0.1-0.3-0.1-0.5-0.2c-0.2,0-0.3,0-0.5,0c-0.3,0-0.6,0.1-0.8,0.2c-0.2,0.1-0.5,0.3-0.6,0.5h0
		c-0.1-0.2-0.3-0.4-0.5-0.5c-0.2-0.1-0.5-0.2-0.8-0.2c-0.2,0-0.3,0-0.4,0c-0.1,0-0.3,0.1-0.4,0.1c-0.1,0-0.2,0.1-0.3,0.2
		c-0.1,0.1-0.2,0.1-0.3,0.2h0l-0.1-0.4h-0.5v3.2h0.7v-2.3c0.2-0.2,0.3-0.3,0.5-0.4c0.2-0.1,0.4-0.2,0.7-0.2c0.1,0,0.2,0,0.4,0
		c0.1,0,0.2,0.1,0.3,0.1c0.1,0.1,0.1,0.1,0.2,0.2c0,0.1,0.1,0.2,0.1,0.4v2.1h0.7v-2.3c0.2-0.2,0.3-0.3,0.5-0.4
		c0.2-0.1,0.4-0.2,0.7-0.2c0.1,0,0.2,0,0.4,0c0.1,0,0.2,0.1,0.3,0.1c0.1,0.1,0.1,0.1,0.2,0.2c0,0.1,0.1,0.2,0.1,0.4v2.1h0.7v-2.2
		c0-0.2,0-0.4-0.1-0.6C129.1,48.8,129,48.7,128.9,48.6z"/>
	<path d="M133.6,48.7c-0.2-0.1-0.3-0.2-0.5-0.3c-0.2-0.1-0.4-0.1-0.7-0.1c-0.3,0-0.5,0-0.7,0.1c-0.2,0.1-0.4,0.2-0.6,0.3
		c-0.2,0.1-0.3,0.3-0.4,0.5c-0.1,0.2-0.2,0.5-0.2,0.8c0,0.3,0.1,0.6,0.2,0.8c0.1,0.2,0.3,0.4,0.5,0.5c0.2,0.1,0.4,0.2,0.7,0.3
		c0.3,0.1,0.6,0.1,0.9,0.1c0.3,0,0.5,0,0.7,0c0.2,0,0.4-0.1,0.6-0.1v-0.4c-0.2,0.1-0.4,0.1-0.6,0.1c-0.2,0-0.4,0-0.6,0
		c-0.2,0-0.4,0-0.6-0.1c-0.2,0-0.4-0.1-0.5-0.2c-0.1-0.1-0.3-0.2-0.3-0.4c-0.1-0.1-0.1-0.3-0.1-0.5h2.9c0-0.1,0-0.1,0-0.1
		c0,0,0,0,0-0.1c0-0.3,0-0.5-0.1-0.7C133.8,49,133.7,48.9,133.6,48.7z M131.2,49.7c0-0.1,0.1-0.2,0.1-0.4c0.1-0.1,0.1-0.2,0.2-0.3
		c0.1-0.1,0.2-0.1,0.4-0.2c0.1,0,0.3-0.1,0.4-0.1c0.2,0,0.3,0,0.4,0.1c0.1,0,0.2,0.1,0.3,0.2c0.1,0.1,0.1,0.2,0.2,0.3
		c0,0.1,0.1,0.2,0.1,0.4L131.2,49.7L131.2,49.7z"/>
	<path d="M137.4,48.4c-0.2,0-0.3,0-0.5,0c-0.1,0-0.3,0.1-0.4,0.1c-0.1,0.1-0.2,0.1-0.3,0.2c-0.1,0.1-0.2,0.2-0.3,0.2h0l-0.1-0.5
		h-0.5v3.2h0.7v-2.3c0.1-0.1,0.2-0.2,0.3-0.2s0.2-0.1,0.4-0.2c0.1,0,0.3-0.1,0.4-0.1c0.2,0,0.3,0,0.5,0h0.1v-0.5
		C137.5,48.4,137.5,48.4,137.4,48.4C137.5,48.4,137.4,48.4,137.4,48.4z"/>
	<rect x="138.3" y="48.4" width="0.7" height="3.2"/>
	<rect x="138.3" y="47.1" width="0.7" height="0.6"/>
	<path d="M21,30.8l19.2,19.1l19.2-19.1L40.2,11.3L21,30.8z M53.5,25.9l-3.8,3.9L36.1,16.6l4.1-4.2L53.5,25.9z M31.3,30.6l8.8-8.9
		l9,8.7l-8.9,9.3L31.3,30.6z M35.5,17.1l4.1,4L26.1,34.8l-4-4L35.5,17.1z M26.6,35.3l4.1-4.2l13.4,13.7l-4,4L26.6,35.3z M44.7,44.2
		l-4-4L54,26.4l4.3,4.3L44.7,44.2z"/>
	<rect x="67.4" y="0" transform="matrix(1 -1.799997e-03 1.799997e-03 1 -5.389252e-02 0.1222)" width="1" height="60"/>
</g>
</svg>
