<?xml version="1.0" encoding="utf-8"?>
<!-- Generator: Adobe Illustrator 25.0.1, SVG Export Plug-In . SVG Version: 6.00 Build 0)  -->
<svg version="1.1" id="Layer_1" xmlns="http://www.w3.org/2000/svg" xmlns:xlink="http://www.w3.org/1999/xlink" x="0px" y="0px"
	 viewBox="0 0 112 41" style="enable-background:new 0 0 112 41;" xml:space="preserve">
<g>
	<path d="M69.8,10.9H70c-0.1,2-0.2,3.8-0.2,5.3v10.5h3.8V6h-5.3L63,18.4L57.7,6h-5.3v20.7h3.8V16.2c0-1.6-0.1-3.4-0.2-5.3h0.1
		l5.6,12.2h2.4L69.8,10.9z"/>
	<path d="M91.4,19.2V24c-0.4,0.1-0.8,0.1-1.2,0.2c-0.5,0-0.9,0.1-1.3,0.1c-2.3,0-4.1-0.6-5.4-1.8c-1.3-1.2-1.9-3.1-1.9-5.5
		c0-1.3,0.2-2.4,0.6-3.3s1-1.8,1.7-2.4c0.7-0.7,1.6-1.1,2.5-1.5c1-0.3,1.8-0.3,2.9-0.3c0.3,0,0.4,0.1,0.7,0.1c0.5,0,0.8,0.1,1.3,0.2
		c0.8,0.1,0.8,0.2,1.6,0.4l2.3-2.5c0,0-0.3-0.3-0.9-0.5c-0.5-0.3-1-0.4-1.3-0.5c-1-0.3-0.8-0.3-1.3-0.4C90.8,6.1,90.2,6,89.2,6
		c-1.2,0-2.3,0.1-3.3,0.4c-1,0.3-2,0.6-2.8,1.1c-0.9,0.5-1.6,1-2.3,1.7c-0.7,0.7-1.2,1.4-1.7,2.2c-0.5,0.8-0.8,1.7-1.1,2.7
		c-0.2,1-0.4,2-0.4,3.1c0,1.5,0.2,2.9,0.7,4.1c0.5,1.3,1.1,2.3,2.1,3.2c0.9,0.9,2.1,1.6,3.5,2.1c1.4,0.5,3,0.7,4.9,0.7
		c0.6,0,1.2,0,1.9-0.1c0.6-0.1,1.2-0.1,1.8-0.2c0.6-0.1,1.1-0.2,1.6-0.3c0.5-0.1,0.9-0.2,1.2-0.4V16h-3.8L91.4,19.2z"/>
	<path d="M54.4,32.1c-0.1,0-0.3-0.1-0.4-0.1c-0.1,0-0.3,0-0.5,0h-1.1v3.1h0.5v-1.3c0.1,0,0.3,0,0.4,0c0.3,0,0.5,0,0.8-0.1
		c0.2,0,0.4-0.1,0.6-0.2c0.2-0.1,0.3-0.2,0.4-0.3c0.1-0.1,0.1-0.3,0.1-0.4c0-0.2-0.1-0.4-0.2-0.5C54.8,32.3,54.7,32.2,54.4,32.1z
		 M54.6,33.2c0,0.1-0.1,0.1-0.2,0.2c-0.1,0.1-0.2,0.1-0.4,0.1c-0.2,0-0.4,0-0.6,0c-0.1,0-0.1,0-0.2,0c-0.1,0-0.1,0-0.2,0v-1.2h0.6
		c0.2,0,0.3,0,0.4,0c0.1,0,0.2,0,0.3,0.1c0.1,0,0.3,0.1,0.3,0.2c0.1,0.1,0.1,0.2,0.1,0.3C54.6,33,54.6,33.1,54.6,33.2z"/>
	<path d="M57.9,33.2c-0.1-0.1-0.3-0.2-0.4-0.2c-0.2-0.1-0.4-0.1-0.6-0.1c-0.2,0-0.4,0-0.6,0.1c-0.2,0.1-0.3,0.1-0.4,0.2
		c-0.1,0.1-0.2,0.2-0.3,0.4c-0.1,0.1-0.1,0.3-0.1,0.5c0,0.2,0,0.3,0.1,0.5c0.1,0.1,0.2,0.3,0.3,0.4c0.1,0.1,0.3,0.2,0.4,0.2
		c0.2,0.1,0.4,0.1,0.6,0.1c0.2,0,0.4,0,0.6-0.1c0.2-0.1,0.3-0.1,0.4-0.2s0.2-0.2,0.3-0.4c0.1-0.1,0.1-0.3,0.1-0.5
		c0-0.2,0-0.3-0.1-0.5C58.1,33.5,58,33.3,57.9,33.2z M57.7,34.4c0,0.1-0.1,0.2-0.2,0.3c-0.1,0.1-0.2,0.1-0.3,0.2
		c-0.1,0-0.2,0.1-0.4,0.1c-0.1,0-0.2,0-0.4-0.1c-0.1,0-0.2-0.1-0.3-0.2s-0.1-0.2-0.2-0.3c0-0.1-0.1-0.2-0.1-0.4c0-0.1,0-0.3,0.1-0.4
		c0-0.1,0.1-0.2,0.2-0.3c0.1-0.1,0.2-0.1,0.3-0.2c0.1,0,0.2-0.1,0.4-0.1c0.1,0,0.2,0,0.4,0.1c0.1,0,0.2,0.1,0.3,0.2
		c0.1,0.1,0.1,0.2,0.2,0.3c0,0.1,0.1,0.2,0.1,0.4C57.8,34.2,57.7,34.3,57.7,34.4z"/>
	<path d="M61.1,33.1C61,33,60.9,33,60.8,32.9c-0.1,0-0.2,0-0.3,0c-0.1,0-0.2,0-0.3,0c-0.1,0-0.2,0-0.3,0.1c-0.1,0-0.2,0.1-0.2,0.1
		c-0.1,0-0.1,0.1-0.2,0.1h0v-1.5h-0.5v3.4h0.5v-1.6c0.1-0.1,0.2-0.2,0.4-0.3c0.2-0.1,0.3-0.1,0.5-0.1c0.2,0,0.4,0,0.4,0.1
		c0.1,0.1,0.1,0.2,0.1,0.4v1.4h0.5v-1.5c0-0.2,0-0.3-0.1-0.4C61.3,33.2,61.2,33.1,61.1,33.1z"/>
	<rect x="62.4" y="33" width="0.5" height="2.2"/>
	<rect x="62.4" y="32" width="0.5" height="0.4"/>
	<path d="M65.4,34.1c-0.1,0-0.2-0.1-0.3-0.1c-0.1,0-0.2,0-0.3-0.1c-0.1,0-0.2,0-0.2,0c-0.1,0-0.1,0-0.2-0.1c-0.1,0-0.1-0.1-0.1-0.1
		c0,0-0.1-0.1-0.1-0.2c0-0.1,0-0.1,0-0.1c0,0,0.1-0.1,0.1-0.1c0.1,0,0.1-0.1,0.2-0.1c0.1,0,0.2,0,0.3,0c0.1,0,0.3,0,0.4,0
		c0.1,0,0.2,0.1,0.4,0.1V33c-0.1,0-0.2-0.1-0.4-0.1c-0.1,0-0.3,0-0.5,0c-0.1,0-0.3,0-0.4,0S64.1,33,64,33.1
		c-0.1,0.1-0.2,0.1-0.2,0.2c-0.1,0.1-0.1,0.2-0.1,0.3c0,0.1,0,0.2,0.1,0.3c0.1,0.1,0.1,0.1,0.2,0.2c0.1,0,0.2,0.1,0.3,0.1
		c0.1,0,0.2,0,0.3,0.1c0.1,0,0.2,0,0.2,0c0.1,0,0.1,0,0.2,0.1c0.1,0,0.1,0.1,0.1,0.1c0,0,0,0.1,0,0.2c0,0.1,0,0.1-0.1,0.2
		c0,0-0.1,0.1-0.2,0.1c-0.1,0-0.1,0.1-0.2,0.1c-0.1,0-0.2,0-0.3,0c-0.1,0-0.3,0-0.4,0c-0.1,0-0.2-0.1-0.4-0.1v0.3c0,0,0.1,0,0.1,0
		c0,0,0.1,0,0.2,0c0.1,0,0.1,0,0.2,0c0.1,0,0.2,0,0.3,0c0.2,0,0.3,0,0.5,0c0.1,0,0.3-0.1,0.4-0.1c0.1-0.1,0.2-0.1,0.2-0.2
		c0.1-0.1,0.1-0.2,0.1-0.3c0-0.1,0-0.2-0.1-0.3C65.6,34.2,65.5,34.1,65.4,34.1z"/>
	<polygon points="64.6,32.4 64.3,31.9 64,31.9 64.5,32.6 64.8,32.6 65.3,31.9 65,31.9 64.7,32.4 	"/>
	<path d="M67.6,34.9c-0.1,0-0.2,0-0.2,0c-0.1,0-0.1,0-0.2-0.1s-0.1-0.1-0.1-0.1c0,0,0-0.1,0-0.1v-1.3h0.9V33H67v-0.6h-0.5V33H66v0.3
		h0.6v1.4c0,0.1,0,0.2,0.1,0.3c0,0.1,0.1,0.1,0.2,0.2c0.1,0.1,0.2,0.1,0.3,0.1s0.2,0,0.4,0c0.1,0,0.2,0,0.3,0c0.1,0,0.1,0,0.2,0
		v-0.3c-0.1,0-0.1,0-0.2,0C67.7,34.9,67.6,34.9,67.6,34.9z"/>
	<path d="M69.9,34.2c-0.1,0.3-0.2,0.5-0.3,0.6h0c-0.1-0.2-0.2-0.4-0.3-0.6L68.7,33h-0.5l1.1,2.2h0.5L71,33h-0.5L69.9,34.2z"/>
	<path d="M73.8,33.2c-0.1-0.1-0.3-0.2-0.4-0.2c-0.2-0.1-0.4-0.1-0.6-0.1c-0.2,0-0.4,0-0.6,0.1c-0.2,0.1-0.3,0.1-0.4,0.2
		c-0.1,0.1-0.2,0.2-0.3,0.4c-0.1,0.1-0.1,0.3-0.1,0.5c0,0.2,0,0.3,0.1,0.5c0.1,0.1,0.2,0.3,0.3,0.4c0.1,0.1,0.3,0.2,0.4,0.2
		c0.2,0.1,0.4,0.1,0.6,0.1c0.2,0,0.4,0,0.6-0.1c0.2-0.1,0.3-0.1,0.4-0.2c0.1-0.1,0.2-0.2,0.3-0.4c0.1-0.1,0.1-0.3,0.1-0.5
		c0-0.2,0-0.3-0.1-0.5C74,33.5,73.9,33.3,73.8,33.2z M73.6,34.4c0,0.1-0.1,0.2-0.2,0.3c-0.1,0.1-0.2,0.1-0.3,0.2
		c-0.1,0-0.2,0.1-0.4,0.1c-0.1,0-0.2,0-0.4-0.1c-0.1,0-0.2-0.1-0.3-0.2c-0.1-0.1-0.1-0.2-0.2-0.3c0-0.1-0.1-0.2-0.1-0.4
		c0-0.1,0-0.3,0.1-0.4c0-0.1,0.1-0.2,0.2-0.3c0.1-0.1,0.2-0.1,0.3-0.2c0.1,0,0.2-0.1,0.4-0.1c0.1,0,0.2,0,0.4,0.1
		c0.1,0,0.2,0.1,0.3,0.2c0.1,0.1,0.1,0.2,0.2,0.3c0,0.1,0.1,0.2,0.1,0.4C73.6,34.2,73.6,34.3,73.6,34.4z"/>
	<path d="M78.4,33.2C78.3,33.1,78.1,33,78,33c-0.2,0-0.3-0.1-0.5-0.1c-0.1,0-0.2,0-0.3,0C77.1,33,77,33,76.9,33
		c-0.1,0-0.1,0.1-0.2,0.1c0,0-0.1,0.1-0.1,0.1h0L76.5,33h-0.4v3.3h0.5V35h0c0.1,0.1,0.2,0.2,0.4,0.2c0.1,0,0.3,0.1,0.5,0.1
		c0.1,0,0.2,0,0.3,0c0.1,0,0.2,0,0.3-0.1c0.1,0,0.2-0.1,0.3-0.1c0.1-0.1,0.2-0.1,0.2-0.2c0.1-0.1,0.1-0.2,0.2-0.3
		c0-0.1,0.1-0.3,0.1-0.4c0-0.2,0-0.4-0.1-0.5C78.6,33.4,78.5,33.3,78.4,33.2z M78.2,34.5c-0.1,0.1-0.1,0.2-0.2,0.3
		c-0.1,0.1-0.2,0.1-0.3,0.1c-0.1,0-0.2,0-0.3,0c-0.1,0-0.3,0-0.4-0.1c-0.1,0-0.2-0.1-0.3-0.2v-1.2c0,0,0.1-0.1,0.1-0.1
		c0,0,0.1-0.1,0.2-0.1c0.1,0,0.1-0.1,0.2-0.1c0.1,0,0.2,0,0.3,0c0.1,0,0.3,0,0.4,0.1c0.1,0,0.2,0.1,0.3,0.2c0.1,0.1,0.1,0.2,0.2,0.3
		c0,0.1,0.1,0.2,0.1,0.4C78.3,34.2,78.2,34.4,78.2,34.5z"/>
	<path d="M81.8,33.2c-0.1-0.1-0.3-0.2-0.4-0.2c-0.2-0.1-0.4-0.1-0.6-0.1c-0.2,0-0.4,0-0.6,0.1c-0.2,0.1-0.3,0.1-0.4,0.2
		c-0.1,0.1-0.2,0.2-0.3,0.4c-0.1,0.1-0.1,0.3-0.1,0.5c0,0.2,0,0.3,0.1,0.5c0.1,0.1,0.2,0.3,0.3,0.4c0.1,0.1,0.3,0.2,0.4,0.2
		c0.2,0.1,0.4,0.1,0.6,0.1c0.2,0,0.4,0,0.6-0.1c0.2-0.1,0.3-0.1,0.4-0.2c0.1-0.1,0.2-0.2,0.3-0.4c0.1-0.1,0.1-0.3,0.1-0.5
		c0-0.2,0-0.3-0.1-0.5C82,33.5,81.9,33.3,81.8,33.2z M81.6,34.4c0,0.1-0.1,0.2-0.2,0.3c-0.1,0.1-0.2,0.1-0.3,0.2
		c-0.1,0-0.2,0.1-0.4,0.1c-0.1,0-0.2,0-0.4-0.1c-0.1,0-0.2-0.1-0.3-0.2s-0.1-0.2-0.2-0.3c0-0.1-0.1-0.2-0.1-0.4c0-0.1,0-0.3,0.1-0.4
		c0-0.1,0.1-0.2,0.2-0.3c0.1-0.1,0.2-0.1,0.3-0.2c0.1,0,0.2-0.1,0.4-0.1c0.1,0,0.2,0,0.4,0.1c0.1,0,0.2,0.1,0.3,0.2
		c0.1,0.1,0.1,0.2,0.2,0.3c0,0.1,0.1,0.2,0.1,0.4C81.6,34.2,81.6,34.3,81.6,34.4z"/>
	<path d="M88.1,33.1C88,33,87.9,33,87.8,32.9c-0.1,0-0.2,0-0.3,0c-0.2,0-0.4,0-0.6,0.1c-0.2,0.1-0.3,0.2-0.4,0.3h0
		c-0.1-0.1-0.2-0.2-0.3-0.3c-0.1-0.1-0.3-0.1-0.5-0.1c-0.1,0-0.2,0-0.3,0c-0.1,0-0.2,0-0.3,0.1c-0.1,0-0.1,0.1-0.2,0.1
		c-0.1,0-0.1,0.1-0.2,0.1h0L84.5,33h-0.4v2.2h0.5v-1.6c0.1-0.1,0.2-0.2,0.4-0.3c0.1-0.1,0.3-0.1,0.5-0.1c0.1,0,0.2,0,0.2,0
		c0.1,0,0.1,0.1,0.2,0.1c0.1,0,0.1,0.1,0.1,0.2c0,0.1,0,0.2,0,0.2v1.4h0.5v-1.6c0.1-0.1,0.2-0.2,0.4-0.3c0.1-0.1,0.3-0.1,0.5-0.1
		c0.1,0,0.2,0,0.2,0c0.1,0,0.1,0.1,0.2,0.1c0.1,0,0.1,0.1,0.1,0.2c0,0.1,0,0.2,0,0.2v1.4h0.5v-1.5c0-0.2,0-0.3-0.1-0.4
		C88.3,33.2,88.2,33.1,88.1,33.1z"/>
	<path d="M91.4,33.2C91.3,33.1,91.2,33,91,33c-0.1,0-0.3-0.1-0.5-0.1c-0.2,0-0.3,0-0.5,0.1c-0.2,0.1-0.3,0.1-0.4,0.2
		c-0.1,0.1-0.2,0.2-0.3,0.4c-0.1,0.1-0.1,0.3-0.1,0.5c0,0.2,0,0.4,0.1,0.5c0.1,0.1,0.2,0.3,0.3,0.4c0.1,0.1,0.3,0.2,0.5,0.2
		c0.2,0,0.4,0.1,0.6,0.1c0.2,0,0.3,0,0.5,0c0.2,0,0.3-0.1,0.4-0.1v-0.3c-0.1,0-0.3,0.1-0.4,0.1c-0.1,0-0.3,0-0.4,0
		c-0.2,0-0.3,0-0.4,0c-0.1,0-0.2-0.1-0.3-0.1c-0.1-0.1-0.2-0.1-0.2-0.2c-0.1-0.1-0.1-0.2-0.1-0.4h2c0,0,0-0.1,0-0.1c0,0,0,0,0,0
		c0-0.2,0-0.4-0.1-0.5C91.6,33.4,91.5,33.2,91.4,33.2z M89.7,33.8c0-0.1,0-0.2,0.1-0.2c0-0.1,0.1-0.1,0.2-0.2
		c0.1-0.1,0.2-0.1,0.2-0.1c0.1,0,0.2,0,0.3,0c0.1,0,0.2,0,0.3,0c0.1,0,0.2,0.1,0.2,0.1c0.1,0.1,0.1,0.1,0.1,0.2c0,0.1,0,0.2,0,0.2
		L89.7,33.8L89.7,33.8z"/>
	<path d="M94,32.9c-0.1,0-0.2,0-0.3,0c-0.1,0-0.2,0.1-0.3,0.1c-0.1,0-0.2,0.1-0.2,0.1c-0.1,0-0.1,0.1-0.2,0.2h0L92.9,33h-0.4v2.2H93
		v-1.6c0.1-0.1,0.1-0.1,0.2-0.2c0.1,0,0.2-0.1,0.3-0.1c0.1,0,0.2-0.1,0.3-0.1c0.1,0,0.2,0,0.3,0h0v-0.4C94.1,32.9,94.1,32.9,94,32.9
		C94.1,32.9,94,32.9,94,32.9z"/>
	<rect x="94.7" y="33" width="0.5" height="2.2"/>
	<rect x="94.7" y="32" width="0.5" height="0.4"/>
	<path d="M13.6,20.7l13.3,13.2l13.3-13.2L26.9,7.3L13.6,20.7z M36.1,17.4l-2.6,2.7L24,10.9l2.8-2.9L36.1,17.4z M20.8,20.6l6.1-6.2
		l6.2,6l-6.2,6.4L20.8,20.6z M23.6,11.3l2.8,2.8l-9.3,9.4l-2.8-2.8L23.6,11.3z M17.5,23.9l2.9-2.9l9.2,9.4l-2.8,2.7L17.5,23.9z
		 M30,30.1l-2.7-2.8l9.2-9.5l2.9,3L30,30.1z"/>
	
		<rect x="45.6" y="-0.5" transform="matrix(1 -1.799997e-03 1.799997e-03 1 -3.632599e-02 8.283538e-02)" width="0.7" height="41.5"/>
</g>
</svg>
