<svg xmlns="http://www.w3.org/2000/svg" viewBox="0 0 102.99 52.32"><defs><style>.cls-1{fill:#fff;}</style></defs><g id="Layer_2" data-name="Layer 2"><g id="Layer_1-2" data-name="Layer 1"><path class="cls-1" d="M71,14.36h.17C71,16.93,71,19.17,71,21.11V34.34h4.78V8.24H69L62.36,23.82,55.65,8.24H49v26.1h4.78V21.09q0-3.12-.24-6.73h.18l7,15.44h3.08Z"/><path class="cls-1" d="M98.21,24.82v6.11c-.45.09-1,.16-1.54.22a16.72,16.72,0,0,1-1.7.09,9.43,9.43,0,0,1-6.81-2.31c-1.6-1.54-2.4-3.85-2.42-6.93a10.56,10.56,0,0,1,.78-4.2,8.69,8.69,0,0,1,5.35-4.92,10.28,10.28,0,0,1,3.64-.38c.4,0,.54.07.94.1a12.91,12.91,0,0,1,1.63.28,9.33,9.33,0,0,1,2,.55L103,10.31a9.25,9.25,0,0,0-1.08-.64A13.61,13.61,0,0,0,100.26,9a7.42,7.42,0,0,0-1.59-.48,18,18,0,0,0-3.27-.3,17.41,17.41,0,0,0-4.17.47,14.71,14.71,0,0,0-3.57,1.38,13,13,0,0,0-2.89,2.16,13.32,13.32,0,0,0-2.16,2.84,13.53,13.53,0,0,0-1.34,3.41,15.8,15.8,0,0,0-.46,3.88,15.06,15.06,0,0,0,.87,5.23,11,11,0,0,0,2.61,4.09,11.88,11.88,0,0,0,4.37,2.66,18.06,18.06,0,0,0,6.13,1,23.46,23.46,0,0,0,2.36-.12q1.2-.12,2.31-.3c.75-.13,1.43-.27,2-.42s1.11-.31,1.5-.45V20.82h-4.8Z"/><path class="cls-1" d="M51.53,41.21a2.71,2.71,0,0,0-.51-.1,5.47,5.47,0,0,0-.6,0H49v4h.63V43.43h.55a5.74,5.74,0,0,0,1-.07,3,3,0,0,0,.73-.24,1.25,1.25,0,0,0,.46-.38,1,1,0,0,0,.15-.54.88.88,0,0,0-.24-.62A1.42,1.42,0,0,0,51.53,41.21Zm.19,1.34a.72.72,0,0,1-.29.25,1.69,1.69,0,0,1-.52.15,4.1,4.1,0,0,1-.76.06h-.27l-.27,0V41.52h.74l.51,0a2,2,0,0,1,.38.07.93.93,0,0,1,.42.22.51.51,0,0,1,.14.38A.74.74,0,0,1,51.72,42.55Z"/><path class="cls-1" d="M55.93,42.57a1.53,1.53,0,0,0-.55-.3,2.4,2.4,0,0,0-.74-.11,2.31,2.31,0,0,0-.72.11,1.53,1.53,0,0,0-.55.3A1.26,1.26,0,0,0,53,43a1.54,1.54,0,0,0-.12.61,1.51,1.51,0,0,0,.12.61,1.35,1.35,0,0,0,.35.47,1.53,1.53,0,0,0,.55.3,2.41,2.41,0,0,0,.74.1,2.28,2.28,0,0,0,.72-.1,1.67,1.67,0,0,0,.56-.3,1.35,1.35,0,0,0,.35-.47,1.51,1.51,0,0,0,.12-.61,1.54,1.54,0,0,0-.12-.61A1.23,1.23,0,0,0,55.93,42.57Zm-.24,1.54a1.09,1.09,0,0,1-.24.35,1,1,0,0,1-.35.21,1.33,1.33,0,0,1-.45.07,1.25,1.25,0,0,1-.45-.07,1.07,1.07,0,0,1-.36-.21,1.09,1.09,0,0,1-.24-.35,1.36,1.36,0,0,1,0-.92,1.09,1.09,0,0,1,.24-.35,1,1,0,0,1,.35-.21,1.33,1.33,0,0,1,.45-.08,1.34,1.34,0,0,1,.46.08,1.13,1.13,0,0,1,.35.21,1.09,1.09,0,0,1,.24.35,1.36,1.36,0,0,1,0,.92Z"/><path class="cls-1" d="M60,42.36a1.09,1.09,0,0,0-.39-.15,2,2,0,0,0-.42-.05,2.22,2.22,0,0,0-.38,0,1.26,1.26,0,0,0-.33.1,1.71,1.71,0,0,0-.27.14,2.31,2.31,0,0,0-.23.18h0V40.76h-.6v4.3H58v-2a1.52,1.52,0,0,1,.5-.37,1.39,1.39,0,0,1,.61-.13.77.77,0,0,1,.55.17.7.7,0,0,1,.17.52v1.81h.61V43.17a.93.93,0,0,0-.12-.5A.73.73,0,0,0,60,42.36Z"/><rect class="cls-1" x="61.64" y="42.24" width="0.6" height="2.82"/><rect class="cls-1" x="61.63" y="41.07" width="0.6" height="0.51"/><path class="cls-1" d="M65.41,43.64a1.26,1.26,0,0,0-.34-.13l-.4-.08-.29,0a1.23,1.23,0,0,1-.25-.08.47.47,0,0,1-.18-.12.29.29,0,0,1-.06-.19.33.33,0,0,1,0-.17.38.38,0,0,1,.14-.14.67.67,0,0,1,.24-.09,1.86,1.86,0,0,1,.36,0,2.45,2.45,0,0,1,.48,0l.46.11v-.39l-.47-.11a3.45,3.45,0,0,0-.57-.05,2.1,2.1,0,0,0-.51.06,1.25,1.25,0,0,0-.41.16.84.84,0,0,0-.29.27.7.7,0,0,0-.1.38.57.57,0,0,0,.1.36.8.8,0,0,0,.26.22,2,2,0,0,0,.37.12l.4.08.28.06.24.08a.53.53,0,0,1,.16.13.32.32,0,0,1,.06.2.36.36,0,0,1-.06.2.58.58,0,0,1-.19.15,1.84,1.84,0,0,1-.3.08,2.21,2.21,0,0,1-.39,0,2.49,2.49,0,0,1-.49,0,3.84,3.84,0,0,1-.46-.11V45l.15.05.22,0,.29,0,.37,0a2.77,2.77,0,0,0,.6-.06,1.79,1.79,0,0,0,.48-.17,1.05,1.05,0,0,0,.31-.28.68.68,0,0,0,.11-.38.74.74,0,0,0-.1-.38A.64.64,0,0,0,65.41,43.64Z"/><polygon class="cls-1" points="64.44 41.51 64.01 40.95 63.59 40.95 64.22 41.74 64.68 41.74 65.31 40.95 64.89 40.95 64.46 41.51 64.44 41.51"/><path class="cls-1" d="M68.13,44.73a1.26,1.26,0,0,1-.3,0,.54.54,0,0,1-.2-.1.27.27,0,0,1-.12-.14.39.39,0,0,1,0-.18V42.63h1.11v-.39H67.47v-.77h-.6v.77h-.72v.39h.72v1.72a.66.66,0,0,0,.07.32.63.63,0,0,0,.21.25,1.09,1.09,0,0,0,.36.16,1.88,1.88,0,0,0,.5.05l.39,0,.23,0v-.39l-.24,0Z"/><path class="cls-1" d="M71.06,43.81l-.36.78h0q-.14-.31-.36-.78l-.73-1.57H69l1.4,2.82H71l1.4-2.82H71.8Z"/><path class="cls-1" d="M76,42.57a1.62,1.62,0,0,0-.55-.3,2.45,2.45,0,0,0-.74-.11,2.38,2.38,0,0,0-.73.11,1.62,1.62,0,0,0-.55.3,1.35,1.35,0,0,0-.35.47,1.39,1.39,0,0,0-.13.61,1.51,1.51,0,0,0,.12.61,1.35,1.35,0,0,0,.35.47A1.58,1.58,0,0,0,74,45a2.34,2.34,0,0,0,.73.1,2.39,2.39,0,0,0,.73-.1,1.53,1.53,0,0,0,.55-.3,1.35,1.35,0,0,0,.35-.47,1.36,1.36,0,0,0,.13-.61,1.54,1.54,0,0,0-.12-.61A1.35,1.35,0,0,0,76,42.57Zm-.25,1.54a.93.93,0,0,1-.23.35,1.07,1.07,0,0,1-.36.21,1.25,1.25,0,0,1-.45.07,1.33,1.33,0,0,1-.45-.07,1.07,1.07,0,0,1-.36-.21.93.93,0,0,1-.23-.35,1.22,1.22,0,0,1,0-.92.93.93,0,0,1,.23-.35,1.07,1.07,0,0,1,.36-.21,1.31,1.31,0,0,1,.9,0,1.07,1.07,0,0,1,.36.21.93.93,0,0,1,.23.35,1.22,1.22,0,0,1,0,.92Z"/><path class="cls-1" d="M81.78,42.5a1.54,1.54,0,0,0-.51-.26,2.47,2.47,0,0,0-.6-.08,1.86,1.86,0,0,0-.42.05,2,2,0,0,0-.32.11,1,1,0,0,0-.21.12.51.51,0,0,0-.13.12h0l-.12-.32H79v4.2h.59V44.8h0a1.66,1.66,0,0,0,.45.25,1.79,1.79,0,0,0,.59.08l.35,0a1.56,1.56,0,0,0,.37-.1,1.66,1.66,0,0,0,.35-.18,1.14,1.14,0,0,0,.29-.29,1.2,1.2,0,0,0,.2-.39,1.67,1.67,0,0,0,.08-.52,1.48,1.48,0,0,0-.13-.67A1.33,1.33,0,0,0,81.78,42.5Zm-.25,1.67a1,1,0,0,1-.27.35.88.88,0,0,1-.35.17,1.2,1.2,0,0,1-.36.05,1.78,1.78,0,0,1-.53-.08,1.7,1.7,0,0,1-.44-.24V42.94l.15-.12a1.05,1.05,0,0,1,.21-.12,1.33,1.33,0,0,1,.28-.1,1.29,1.29,0,0,1,.35,0,1.35,1.35,0,0,1,.46.07,1,1,0,0,1,.34.22.91.91,0,0,1,.2.33,1.42,1.42,0,0,1,0,1Z"/><path class="cls-1" d="M86.06,42.57a1.58,1.58,0,0,0-.56-.3,2.33,2.33,0,0,0-.73-.11,2.38,2.38,0,0,0-.73.11,1.53,1.53,0,0,0-.55.3,1.35,1.35,0,0,0-.35.47,1.39,1.39,0,0,0-.13.61,1.51,1.51,0,0,0,.12.61,1.35,1.35,0,0,0,.35.47A1.62,1.62,0,0,0,84,45a2.45,2.45,0,0,0,.74.1,2.39,2.39,0,0,0,.73-.1,1.62,1.62,0,0,0,.55-.3,1.35,1.35,0,0,0,.35-.47,1.51,1.51,0,0,0,.13-.61A1.39,1.39,0,0,0,86.4,43,1.32,1.32,0,0,0,86.06,42.57Zm-.25,1.54a.91.91,0,0,1-.59.56,1.29,1.29,0,0,1-.45.07,1.33,1.33,0,0,1-.45-.07,1.07,1.07,0,0,1-.36-.21.93.93,0,0,1-.23-.35,1.22,1.22,0,0,1,0-.92.93.93,0,0,1,.23-.35,1.07,1.07,0,0,1,.36-.21,1.25,1.25,0,0,1,.45-.08,1.33,1.33,0,0,1,.45.08.91.91,0,0,1,.59.56,1.36,1.36,0,0,1,0,.92Z"/><path class="cls-1" d="M94.1,42.36a1.16,1.16,0,0,0-.4-.16,3.29,3.29,0,0,0-.42,0,1.75,1.75,0,0,0-.74.15,1.87,1.87,0,0,0-.56.42h0a1,1,0,0,0-.42-.41,1.31,1.31,0,0,0-.69-.16,2.22,2.22,0,0,0-.38,0,1.5,1.5,0,0,0-.32.1,1.17,1.17,0,0,0-.27.15,1.24,1.24,0,0,0-.22.18h0l-.11-.39h-.47v2.82h.6v-2a1.55,1.55,0,0,1,.48-.37,1.25,1.25,0,0,1,.59-.13,1.06,1.06,0,0,1,.31,0,.46.46,0,0,1,.23.12.51.51,0,0,1,.15.21.76.76,0,0,1,.06.32v1.81h.6v-2a1.55,1.55,0,0,1,.48-.37,1.28,1.28,0,0,1,.59-.13,1,1,0,0,1,.31,0,.55.55,0,0,1,.24.12.66.66,0,0,1,.15.21,1,1,0,0,1,0,.32v1.81h.6V43.17a.93.93,0,0,0-.12-.5A.81.81,0,0,0,94.1,42.36Z"/><path class="cls-1" d="M98.21,42.49a1.25,1.25,0,0,0-.47-.25,2.14,2.14,0,0,0-.58-.08,1.89,1.89,0,0,0-.63.1,1.54,1.54,0,0,0-.54.28,1.5,1.5,0,0,0-.38.48,1.54,1.54,0,0,0-.13.67,1.41,1.41,0,0,0,.14.67,1.33,1.33,0,0,0,.4.45,1.81,1.81,0,0,0,.6.25,3.61,3.61,0,0,0,.75.07,4.26,4.26,0,0,0,.63,0,2.51,2.51,0,0,0,.49-.12v-.38a4.48,4.48,0,0,1-.5.11,4.39,4.39,0,0,1-.54,0,2.31,2.31,0,0,1-.54,0,1.29,1.29,0,0,1-.43-.17.81.81,0,0,1-.3-.31.92.92,0,0,1-.1-.46h2.55c0-.05,0-.09,0-.11v-.06a1.56,1.56,0,0,0-.12-.64A1.2,1.2,0,0,0,98.21,42.49Zm-2.1.86a.71.71,0,0,1,.1-.31.86.86,0,0,1,.22-.25,1,1,0,0,1,.31-.17,1.23,1.23,0,0,1,.39-.06,1,1,0,0,1,.37.06.88.88,0,0,1,.28.17.6.6,0,0,1,.16.25.78.78,0,0,1,.06.31Z"/><path class="cls-1" d="M101.54,42.16a2.71,2.71,0,0,0-.41,0l-.36.11a1.58,1.58,0,0,0-.29.17.88.88,0,0,0-.22.21h0l-.12-.45h-.47v2.82h.6v-2a1,1,0,0,1,.25-.21,1.66,1.66,0,0,1,.33-.15,2.34,2.34,0,0,1,.38-.09,3,3,0,0,1,.42,0h0v-.44h-.15Z"/><rect class="cls-1" x="102.37" y="42.24" width="0.6" height="2.82"/><rect class="cls-1" x="102.36" y="41.07" width="0.6" height="0.51"/><path class="cls-1" d="M0,26.82,16.76,43.48,33.53,26.82l-16.77-17Zm28.38-4.24L25.07,26,13.18,14.45l3.58-3.63ZM9.06,26.67l7.71-7.78L24.6,26.5l-7.8,8.08ZM12.7,14.93l3.58,3.49L4.49,30.32,1,26.82ZM5,30.8l3.61-3.65L20.24,39.06l-3.48,3.46Zm15.76,7.78-3.45-3.52,11.58-12,3.71,3.76Z"/><rect class="cls-1" x="40.46" width="0.91" height="52.32" transform="translate(-0.05 0.07) rotate(-0.1)"/></g></g></svg>