<?xml version="1.0" encoding="utf-8"?>
<!-- Generator: Adobe Illustrator 25.0.1, SVG Export Plug-In . SVG Version: 6.00 Build 0)  -->
<svg version="1.1" id="Layer_1" xmlns="http://www.w3.org/2000/svg" xmlns:xlink="http://www.w3.org/1999/xlink" x="0px" y="0px"
	 viewBox="0 0 138.3 60.7" style="enable-background:new 0 0 138.3 60.7;" xml:space="preserve">
<style type="text/css">
	.st0{fill:#FFFFFF;}
</style>
<g>
	<path class="st0" d="M95.1,18.2h0.2c-0.2,2.9-0.3,5.4-0.3,7.5v14.8h5.3V11.4h-7.5l-7.5,17.4l-7.5-17.4h-7.5v29.2h5.3V25.7
		c0-2.3-0.1-4.8-0.3-7.5h0.2l7.9,17.3H87L95.1,18.2z"/>
	<path class="st0" d="M125.5,29.9v6.8c-0.5,0.1-1.1,0.2-1.7,0.3c-0.7,0.1-1.3,0.1-1.9,0.1c-3.3,0-5.8-0.9-7.6-2.6
		c-1.8-1.7-2.7-4.3-2.7-7.8c0-1.8,0.3-3.3,0.9-4.7c0.6-1.4,1.4-2.5,2.4-3.4c1-0.9,2.2-1.6,3.6-2.1c1.4-0.5,2.5-0.4,4.1-0.4
		c0.4,0,0.6,0.1,1,0.1c0.7,0,1.1,0.2,1.8,0.3c1.2,0.2,1.1,0.3,2.2,0.6l3.3-3.5c0,0-0.5-0.4-1.2-0.7c-0.7-0.4-1.4-0.6-1.8-0.8
		c-1.4-0.4-1.1-0.4-1.8-0.5c-1.3-0.2-2.2-0.3-3.7-0.3c-1.7,0-3.2,0.2-4.7,0.5c-1.4,0.4-2.8,0.9-4,1.5c-1.2,0.7-2.3,1.5-3.2,2.4
		s-1.7,2-2.4,3.2c-0.7,1.2-1.2,2.4-1.5,3.8c-0.3,1.4-0.5,2.8-0.5,4.3c0,2.1,0.3,4.1,1,5.9c0.6,1.8,1.6,3.3,2.9,4.6
		c1.3,1.3,2.9,2.3,4.9,3c2,0.7,4.2,1.1,6.9,1.1c0.9,0,1.8,0,2.6-0.1c0.9-0.1,1.7-0.2,2.6-0.3c0.8-0.1,1.6-0.3,2.3-0.5
		c0.7-0.2,1.2-0.3,1.7-0.5V25.4h-5.4L125.5,29.9z"/>
	<path class="st0" d="M73.3,48.2c-0.2,0-0.4-0.1-0.6-0.1c-0.2,0-0.4,0-0.7,0h-1.6v4.4h0.7v-1.8c0.2,0,0.4,0,0.6,0
		c0.4,0,0.8,0,1.1-0.1c0.3-0.1,0.6-0.1,0.8-0.3c0.2-0.1,0.4-0.3,0.5-0.4c0.1-0.2,0.2-0.4,0.2-0.6c0-0.3-0.1-0.5-0.3-0.7
		C73.9,48.5,73.6,48.3,73.3,48.2z M73.5,49.7c-0.1,0.1-0.2,0.2-0.3,0.3c-0.1,0.1-0.3,0.1-0.6,0.2c-0.2,0-0.5,0.1-0.9,0.1
		c-0.1,0-0.2,0-0.3,0c-0.1,0-0.2,0-0.3,0v-1.6H72c0.2,0,0.4,0,0.6,0c0.2,0,0.3,0,0.4,0.1c0.2,0.1,0.4,0.1,0.5,0.3
		c0.1,0.1,0.2,0.3,0.2,0.4C73.6,49.5,73.6,49.6,73.5,49.7z"/>
	<path class="st0" d="M78.2,49.8c-0.2-0.1-0.4-0.3-0.6-0.3c-0.2-0.1-0.5-0.1-0.8-0.1c-0.3,0-0.6,0-0.8,0.1c-0.2,0.1-0.4,0.2-0.6,0.3
		c-0.2,0.1-0.3,0.3-0.4,0.5c-0.1,0.2-0.1,0.4-0.1,0.7c0,0.2,0,0.5,0.1,0.7c0.1,0.2,0.2,0.4,0.4,0.5c0.2,0.1,0.4,0.3,0.6,0.3
		c0.2,0.1,0.5,0.1,0.8,0.1c0.3,0,0.6,0,0.8-0.1c0.2-0.1,0.4-0.2,0.6-0.3s0.3-0.3,0.4-0.5s0.1-0.4,0.1-0.7c0-0.3,0-0.5-0.1-0.7
		C78.5,50.1,78.4,49.9,78.2,49.8z M77.9,51.5c-0.1,0.2-0.1,0.3-0.3,0.4c-0.1,0.1-0.2,0.2-0.4,0.2c-0.2,0.1-0.3,0.1-0.5,0.1
		c-0.2,0-0.4,0-0.5-0.1C76.1,52,76,52,75.9,51.9s-0.2-0.2-0.3-0.4c-0.1-0.2-0.1-0.3-0.1-0.5c0-0.2,0-0.4,0.1-0.5
		c0.1-0.2,0.2-0.3,0.3-0.4c0.1-0.1,0.2-0.2,0.4-0.2c0.2-0.1,0.3-0.1,0.5-0.1c0.2,0,0.4,0,0.5,0.1s0.3,0.1,0.4,0.2
		c0.1,0.1,0.2,0.2,0.3,0.4C78,50.6,78,50.8,78,51C78,51.2,78,51.3,77.9,51.5z"/>
	<path class="st0" d="M82.8,49.5c-0.1-0.1-0.3-0.1-0.4-0.2c-0.2,0-0.3,0-0.5,0c-0.2,0-0.3,0-0.4,0c-0.1,0-0.3,0.1-0.4,0.1
		c-0.1,0-0.2,0.1-0.3,0.2c-0.1,0.1-0.2,0.1-0.3,0.2h0v-2.1h-0.7v4.8h0.7v-2.2c0.2-0.2,0.3-0.3,0.6-0.4c0.2-0.1,0.4-0.1,0.7-0.1
		c0.3,0,0.5,0.1,0.6,0.2c0.1,0.1,0.2,0.3,0.2,0.6v2h0.7v-2.1c0-0.2,0-0.4-0.1-0.6C83,49.7,82.9,49.6,82.8,49.5z"/>
	<rect x="84.6" y="49.4" class="st0" width="0.7" height="3.2"/>
	<rect x="84.6" y="48.1" class="st0" width="0.7" height="0.6"/>
	<path class="st0" d="M88.8,50.9c-0.1-0.1-0.2-0.1-0.4-0.1c-0.1,0-0.3-0.1-0.4-0.1c-0.1,0-0.2,0-0.3-0.1s-0.2-0.1-0.3-0.1
		c-0.1,0-0.1-0.1-0.2-0.1c0-0.1-0.1-0.1-0.1-0.2c0-0.1,0-0.1,0-0.2c0-0.1,0.1-0.1,0.2-0.2c0.1,0,0.2-0.1,0.3-0.1c0.1,0,0.2,0,0.4,0
		c0.2,0,0.4,0,0.5,0.1c0.2,0,0.3,0.1,0.5,0.1v-0.4c-0.2-0.1-0.3-0.1-0.5-0.1c-0.2,0-0.4,0-0.6,0c-0.2,0-0.4,0-0.6,0.1
		s-0.3,0.1-0.5,0.2c-0.1,0.1-0.2,0.2-0.3,0.3c-0.1,0.1-0.1,0.3-0.1,0.4c0,0.2,0,0.3,0.1,0.4c0.1,0.1,0.2,0.2,0.3,0.2
		c0.1,0.1,0.3,0.1,0.4,0.1c0.1,0,0.3,0.1,0.4,0.1c0.1,0,0.2,0,0.3,0.1c0.1,0,0.2,0.1,0.3,0.1c0.1,0,0.1,0.1,0.2,0.1
		c0,0.1,0.1,0.1,0.1,0.2c0,0.1,0,0.2-0.1,0.2C88.4,52,88.3,52,88.2,52c-0.1,0-0.2,0.1-0.3,0.1c-0.1,0-0.3,0-0.4,0
		c-0.2,0-0.4,0-0.6,0c-0.2,0-0.3-0.1-0.5-0.1v0.4c0,0,0.1,0,0.2,0.1c0.1,0,0.1,0,0.2,0.1c0.1,0,0.2,0,0.3,0c0.1,0,0.3,0,0.4,0
		c0.2,0,0.5,0,0.7-0.1c0.2,0,0.4-0.1,0.5-0.2c0.1-0.1,0.3-0.2,0.3-0.3c0.1-0.1,0.1-0.3,0.1-0.4c0-0.2,0-0.3-0.1-0.4
		C89,51.1,88.9,51,88.8,50.9z"/>
	<polygon class="st0" points="87.7,48.6 87.2,47.9 86.8,47.9 87.5,48.8 88,48.8 88.7,47.9 88.2,47.9 87.7,48.6 	"/>
	<path class="st0" d="M91.8,52.2c-0.1,0-0.2,0-0.3,0c-0.1,0-0.2-0.1-0.2-0.1c-0.1,0-0.1-0.1-0.1-0.2c0-0.1,0-0.1,0-0.2v-1.8h1.2
		v-0.4h-1.2v-0.9h-0.7v0.9h-0.8v0.4h0.8v1.9c0,0.1,0,0.3,0.1,0.4c0.1,0.1,0.1,0.2,0.2,0.3c0.1,0.1,0.2,0.1,0.4,0.2
		c0.2,0,0.3,0.1,0.6,0.1c0.2,0,0.3,0,0.4,0c0.1,0,0.2,0,0.3-0.1v-0.4c-0.1,0-0.2,0-0.3,0C92,52.2,91.9,52.2,91.8,52.2z"/>
	<path class="st0" d="M95.1,51.1c-0.2,0.4-0.3,0.6-0.4,0.9h0c-0.1-0.2-0.2-0.5-0.4-0.9l-0.8-1.8h-0.7l1.6,3.2h0.7l1.6-3.2H96
		L95.1,51.1z"/>
	<path class="st0" d="M100.6,49.8c-0.2-0.1-0.4-0.3-0.6-0.3c-0.2-0.1-0.5-0.1-0.8-0.1c-0.3,0-0.6,0-0.8,0.1
		c-0.2,0.1-0.5,0.2-0.6,0.3c-0.2,0.1-0.3,0.3-0.4,0.5c-0.1,0.2-0.1,0.4-0.1,0.7c0,0.2,0,0.5,0.1,0.7c0.1,0.2,0.2,0.4,0.4,0.5
		c0.2,0.1,0.4,0.3,0.6,0.3c0.2,0.1,0.5,0.1,0.8,0.1c0.3,0,0.6,0,0.8-0.1c0.2-0.1,0.4-0.2,0.6-0.3c0.2-0.1,0.3-0.3,0.4-0.5
		c0.1-0.2,0.1-0.4,0.1-0.7c0-0.3,0-0.5-0.1-0.7C100.9,50.1,100.8,49.9,100.6,49.8z M100.3,51.5c-0.1,0.2-0.1,0.3-0.3,0.4
		c-0.1,0.1-0.2,0.2-0.4,0.2c-0.2,0.1-0.3,0.1-0.5,0.1c-0.2,0-0.4,0-0.5-0.1c-0.2-0.1-0.3-0.1-0.4-0.2c-0.1-0.1-0.2-0.2-0.3-0.4
		c-0.1-0.2-0.1-0.3-0.1-0.5c0-0.2,0-0.4,0.1-0.5c0.1-0.2,0.1-0.3,0.3-0.4c0.1-0.1,0.2-0.2,0.4-0.2c0.2-0.1,0.3-0.1,0.5-0.1
		c0.2,0,0.4,0,0.5,0.1c0.2,0.1,0.3,0.1,0.4,0.2c0.1,0.1,0.2,0.2,0.3,0.4c0.1,0.2,0.1,0.3,0.1,0.5C100.4,51.2,100.4,51.3,100.3,51.5z
		"/>
	<path class="st0" d="M107.1,49.7c-0.2-0.1-0.4-0.2-0.6-0.3c-0.2-0.1-0.4-0.1-0.7-0.1c-0.2,0-0.3,0-0.5,0.1c-0.1,0-0.3,0.1-0.4,0.1
		c-0.1,0-0.2,0.1-0.2,0.1c-0.1,0-0.1,0.1-0.1,0.1h0l-0.1-0.4H104v4.7h0.7v-1.8h0c0.1,0.1,0.3,0.2,0.5,0.3c0.2,0.1,0.4,0.1,0.7,0.1
		c0.1,0,0.3,0,0.4,0c0.1,0,0.3-0.1,0.4-0.1c0.1-0.1,0.3-0.1,0.4-0.2c0.1-0.1,0.2-0.2,0.3-0.3c0.1-0.1,0.2-0.3,0.2-0.4
		c0.1-0.2,0.1-0.4,0.1-0.6c0-0.3,0-0.5-0.1-0.7C107.4,50,107.3,49.8,107.1,49.7z M106.8,51.5c-0.1,0.2-0.2,0.3-0.3,0.4
		c-0.1,0.1-0.3,0.2-0.4,0.2c-0.1,0-0.3,0.1-0.4,0.1c-0.2,0-0.4,0-0.6-0.1c-0.2-0.1-0.3-0.2-0.5-0.3v-1.7c0,0,0.1-0.1,0.2-0.1
		c0.1-0.1,0.1-0.1,0.2-0.1c0.1,0,0.2-0.1,0.3-0.1c0.1,0,0.2,0,0.4,0c0.2,0,0.4,0,0.5,0.1c0.1,0.1,0.3,0.1,0.4,0.2
		c0.1,0.1,0.2,0.2,0.2,0.4c0.1,0.1,0.1,0.3,0.1,0.5C107,51.2,106.9,51.4,106.8,51.5z"/>
	<path class="st0" d="M111.9,49.8c-0.2-0.1-0.4-0.3-0.6-0.3c-0.2-0.1-0.5-0.1-0.8-0.1c-0.3,0-0.6,0-0.8,0.1
		c-0.2,0.1-0.4,0.2-0.6,0.3c-0.2,0.1-0.3,0.3-0.4,0.5c-0.1,0.2-0.1,0.4-0.1,0.7c0,0.2,0,0.5,0.1,0.7c0.1,0.2,0.2,0.4,0.4,0.5
		c0.2,0.1,0.4,0.3,0.6,0.3c0.2,0.1,0.5,0.1,0.8,0.1c0.3,0,0.6,0,0.8-0.1c0.2-0.1,0.4-0.2,0.6-0.3s0.3-0.3,0.4-0.5
		c0.1-0.2,0.1-0.4,0.1-0.7c0-0.3,0-0.5-0.1-0.7C112.2,50.1,112.1,49.9,111.9,49.8z M111.6,51.5c-0.1,0.2-0.1,0.3-0.3,0.4
		c-0.1,0.1-0.2,0.2-0.4,0.2c-0.2,0.1-0.3,0.1-0.5,0.1c-0.2,0-0.4,0-0.5-0.1c-0.2-0.1-0.3-0.1-0.4-0.2c-0.1-0.1-0.2-0.2-0.3-0.4
		c-0.1-0.2-0.1-0.3-0.1-0.5c0-0.2,0-0.4,0.1-0.5c0.1-0.2,0.1-0.3,0.3-0.4c0.1-0.1,0.2-0.2,0.4-0.2c0.2-0.1,0.3-0.1,0.5-0.1
		c0.2,0,0.4,0,0.5,0.1c0.2,0.1,0.3,0.1,0.4,0.2c0.1,0.1,0.2,0.2,0.3,0.4c0.1,0.2,0.1,0.3,0.1,0.5C111.7,51.2,111.7,51.3,111.6,51.5z
		"/>
	<path class="st0" d="M120.9,49.5c-0.1-0.1-0.3-0.1-0.5-0.2c-0.2,0-0.3,0-0.5,0c-0.3,0-0.6,0.1-0.8,0.2c-0.2,0.1-0.4,0.3-0.6,0.5h0
		c-0.1-0.2-0.3-0.3-0.5-0.5c-0.2-0.1-0.5-0.2-0.8-0.2c-0.2,0-0.3,0-0.4,0c-0.1,0-0.3,0.1-0.4,0.1c-0.1,0-0.2,0.1-0.3,0.2
		c-0.1,0.1-0.2,0.1-0.2,0.2h0l-0.1-0.4h-0.5v3.2h0.7v-2.2c0.2-0.2,0.3-0.3,0.5-0.4c0.2-0.1,0.4-0.1,0.7-0.1c0.1,0,0.2,0,0.3,0
		c0.1,0,0.2,0.1,0.3,0.1c0.1,0.1,0.1,0.1,0.2,0.2c0,0.1,0.1,0.2,0.1,0.4v2h0.7v-2.2c0.2-0.2,0.3-0.3,0.5-0.4
		c0.2-0.1,0.4-0.1,0.7-0.1c0.1,0,0.2,0,0.3,0c0.1,0,0.2,0.1,0.3,0.1c0.1,0.1,0.1,0.1,0.2,0.2c0,0.1,0.1,0.2,0.1,0.4v2h0.7v-2.1
		c0-0.2,0-0.4-0.1-0.6C121.1,49.7,121,49.6,120.9,49.5z"/>
	<path class="st0" d="M125.5,49.7c-0.1-0.1-0.3-0.2-0.5-0.3c-0.2-0.1-0.4-0.1-0.6-0.1c-0.2,0-0.5,0-0.7,0.1
		c-0.2,0.1-0.4,0.2-0.6,0.3c-0.2,0.1-0.3,0.3-0.4,0.5c-0.1,0.2-0.2,0.5-0.2,0.7c0,0.3,0.1,0.5,0.2,0.7c0.1,0.2,0.3,0.4,0.4,0.5
		c0.2,0.1,0.4,0.2,0.7,0.3c0.3,0.1,0.5,0.1,0.8,0.1c0.2,0,0.5,0,0.7,0c0.2,0,0.4-0.1,0.5-0.1V52c-0.2,0.1-0.4,0.1-0.6,0.1
		c-0.2,0-0.4,0-0.6,0c-0.2,0-0.4,0-0.6-0.1c-0.2,0-0.3-0.1-0.5-0.2c-0.1-0.1-0.2-0.2-0.3-0.3c-0.1-0.1-0.1-0.3-0.1-0.5h2.9
		c0-0.1,0-0.1,0-0.1c0,0,0,0,0-0.1c0-0.3,0-0.5-0.1-0.7C125.7,49.9,125.6,49.8,125.5,49.7z M123.1,50.6c0-0.1,0.1-0.2,0.1-0.3
		c0.1-0.1,0.1-0.2,0.2-0.3c0.1-0.1,0.2-0.1,0.4-0.2c0.1,0,0.3-0.1,0.4-0.1c0.2,0,0.3,0,0.4,0.1c0.1,0,0.2,0.1,0.3,0.2
		c0.1,0.1,0.1,0.2,0.2,0.3c0,0.1,0.1,0.2,0.1,0.3L123.1,50.6L123.1,50.6z"/>
	<path class="st0" d="M129.2,49.3c-0.2,0-0.3,0-0.5,0c-0.1,0-0.3,0.1-0.4,0.1c-0.1,0.1-0.2,0.1-0.3,0.2c-0.1,0.1-0.2,0.1-0.2,0.2h0
		l-0.1-0.5h-0.5v3.2h0.7v-2.2c0.1-0.1,0.2-0.2,0.3-0.2c0.1-0.1,0.2-0.1,0.4-0.2c0.1,0,0.3-0.1,0.4-0.1c0.2,0,0.3,0,0.5,0h0.1v-0.5
		C129.4,49.3,129.3,49.3,129.2,49.3C129.3,49.3,129.2,49.3,129.2,49.3z"/>
	<rect x="130.1" y="49.4" class="st0" width="0.7" height="3.2"/>
	<rect x="130.1" y="48.1" class="st0" width="0.7" height="0.6"/>
	<path class="st0" d="M15.7,32.1l18.7,18.6l18.7-18.6l-18.7-19L15.7,32.1z M47.4,27.4l-3.7,3.8L30.4,18.3l4-4.1L47.4,27.4z M25.8,32
		l8.6-8.7l8.8,8.5l-8.7,9L25.8,32z M29.9,18.8l4,3.9L20.7,36l-3.9-3.9L29.9,18.8z M21.2,36.6l4-4.1l13,13.3l-3.9,3.9L21.2,36.6z
		 M38.8,45.3L35,41.4l12.9-13.4l4.1,4.2L38.8,45.3z"/>
	
		<rect x="60.9" y="2.1" transform="matrix(1 -1.799997e-03 1.799997e-03 1 -5.641996e-02 0.1106)" class="st0" width="1" height="58.5"/>
</g>
</svg>
