<?xml version="1.0" encoding="utf-8"?>
<!-- Generator: Adobe Illustrator 25.0.1, SVG Export Plug-In . SVG Version: 6.00 Build 0)  -->
<svg version="1.1" id="Layer_1" xmlns="http://www.w3.org/2000/svg" xmlns:xlink="http://www.w3.org/1999/xlink" x="0px" y="0px"
	 viewBox="0 0 160 78" style="enable-background:new 0 0 160 78;" xml:space="preserve">
<style type="text/css">
	.st0{fill:#FFFFFF;}
	.st1{clip-path:url(#SVGID_2_);}
</style>
<path class="st0" d="M11.6,58.1l0-7.3l-3.6,6H7l-3.6-5.9v7.2H1.5v-11h1.7l4.4,7.3l4.3-7.3h1.7l0,11H11.6z M34.6,58.1l-2.2-3.2
	c-0.1,0-0.2,0-0.4,0h-2.5v3.2h-2v-11h4.5c1,0,1.8,0.2,2.5,0.5c0.7,0.3,1.3,0.8,1.6,1.3c0.4,0.6,0.6,1.3,0.6,2.1
	c0,0.8-0.2,1.5-0.6,2.1c-0.4,0.6-1,1-1.7,1.3l2.5,3.6H34.6z M34.5,51c0-0.7-0.2-1.2-0.7-1.6c-0.5-0.4-1.1-0.6-2-0.6h-2.4v4.4h2.4
	c0.9,0,1.6-0.2,2-0.6C34.3,52.2,34.5,51.7,34.5,51z M49.8,47.1h2v11h-2V47.1z M68,48.8h-3.6v-1.7h9.3v1.7H70v9.3h-2V48.8z
	 M88.5,48.8h-3.6v-1.7h9.3v1.7h-3.6v9.3h-2V48.8z M106.7,47.1h2v11h-2V47.1z M126.4,53.5l-1.7,1.8v2.8h-2v-11h2v5.6l5.4-5.6h2.3
	l-4.6,4.9l4.9,6.1h-2.4L126.4,53.5z"/>
<g>
	<defs>
		<rect id="SVGID_1_" x="1.4" y="0" width="158.4" height="32.8"/>
	</defs>
	<clipPath id="SVGID_2_">
		<use xlink:href="#SVGID_1_"  style="overflow:visible;"/>
	</clipPath>
	<g class="st1">
		<path class="st0" d="M154.1,0h5.7l-5.7,10V0z"/>
		<path class="st0" d="M11.4,0h-10v32.8h10V0z"/>
		<path class="st0" d="M154.1,0H7.1v10h147V0z"/>
		<path class="st0" d="M139.8,22.8H8.6v10h131.3V22.8z"/>
		<path class="st0" d="M141.3,32.8l5.7-10h-10l0,10H141.3z"/>
	</g>
</g>
</svg>
