<?xml version="1.0" encoding="utf-8"?>
<!-- Generator: Adobe Illustrator 25.0.1, SVG Export Plug-In . SVG Version: 6.00 Build 0)  -->
<svg version="1.1" id="Layer_1" xmlns="http://www.w3.org/2000/svg" xmlns:xlink="http://www.w3.org/1999/xlink" x="0px" y="0px"
	 viewBox="0 0 154 32" style="enable-background:new 0 0 154 32;" xml:space="preserve">
<style type="text/css">
	.st0{fill:#2E2E2E;}
</style>
<path class="st0" d="M14.4,15.8L30.6,32l16.3-16.2L30.6-0.7L14.4,15.8z M41.9,11.7L38.7,15L27.2,3.8l3.5-3.5L41.9,11.7z M23.2,15.6
	l7.5-7.5l7.6,7.4l-7.6,7.8L23.2,15.6z M26.7,4.3l3.5,3.4L18.7,19.2l-3.4-3.4L26.7,4.3z M19.2,19.7l3.5-3.5L34,27.7L30.6,31
	L19.2,19.7z M34.5,27.2l-3.3-3.4l11.2-11.7l3.6,3.6L34.5,27.2z"/>
</svg>
